<mxfile host="app.diagrams.net" modified="2024-06-25T12:57:44.993Z" agent="Mozilla/5.0 (Windows NT 10.0; Win64; x64) AppleWebKit/537.36 (KHTML, like Gecko) Chrome/126.0.0.0 Safari/537.36 Edg/126.0.0.0" etag="kwjQP0fz6lfSx_Hst6bo" version="24.6.2" type="github">
  <diagram name="第 1 页" id="mCtsNMPK-qCeQv55arq6">
    <mxGraphModel dx="1213" dy="1915" grid="1" gridSize="10" guides="1" tooltips="1" connect="1" arrows="1" fold="1" page="1" pageScale="1" pageWidth="827" pageHeight="1169" math="0" shadow="0">
      <root>
        <mxCell id="0" />
        <mxCell id="1" parent="0" />
        <mxCell id="GfVbO2rgs8tm_GtIgk81-5" value="" style="rounded=0;whiteSpace=wrap;html=1;fillColor=none;strokeColor=none;" parent="1" vertex="1">
          <mxGeometry x="80" y="-160" width="680" height="360" as="geometry" />
        </mxCell>
        <mxCell id="GfVbO2rgs8tm_GtIgk81-1" value="" style="rounded=0;whiteSpace=wrap;html=1;fillColor=#d5e8d4;strokeColor=#82b366;" parent="1" vertex="1">
          <mxGeometry x="120" y="-80" width="300" height="240" as="geometry" />
        </mxCell>
        <mxCell id="GfVbO2rgs8tm_GtIgk81-2" value="" style="rounded=0;whiteSpace=wrap;html=1;fillColor=#fff2cc;strokeColor=#d6b656;" parent="1" vertex="1">
          <mxGeometry x="420" y="-80" width="300" height="240" as="geometry" />
        </mxCell>
        <mxCell id="GfVbO2rgs8tm_GtIgk81-3" value="Cell1" style="text;html=1;align=center;verticalAlign=middle;resizable=0;points=[];autosize=1;strokeColor=none;fillColor=none;fontSize=25;" parent="1" vertex="1">
          <mxGeometry x="240" y="-120" width="80" height="40" as="geometry" />
        </mxCell>
        <mxCell id="GfVbO2rgs8tm_GtIgk81-4" value="Cell2" style="text;html=1;align=center;verticalAlign=middle;resizable=0;points=[];autosize=1;strokeColor=none;fillColor=none;fontSize=25;" parent="1" vertex="1">
          <mxGeometry x="530" y="-120" width="80" height="40" as="geometry" />
        </mxCell>
      </root>
    </mxGraphModel>
  </diagram>
</mxfile>
